# Blender 3.4.1
# www.blender.org
mtllib 23obj.mtl
o Cube
v -0.768519 1.178658 -1.010021
v 0.981890 0.291781 -1.396695
v -0.981890 -0.291781 1.396695
v -1.550965 -0.589119 -0.497440
v 0.768519 -1.178658 1.010021
v 0.199444 -1.475997 -0.884113
v -0.407791 1.005279 1.020601
v -0.350976 1.396823 0.379750
v 1.399434 0.509945 -0.006924
v 1.342618 0.118402 0.633928
vn 0.5669 0.1685 -0.8064
vn 0.9168 0.3987 -0.0243
vn 0.8719 0.0898 0.4813
vn 0.4437 -0.6805 0.5831
vn 0.1151 -0.8522 -0.5104
vn -0.5669 -0.1685 0.8064
vn -0.8955 -0.3401 -0.2872
vn -0.4437 0.6805 -0.5831
vn -0.2313 0.6487 0.7250
vn -0.1865 0.9577 0.2194
vt 0.375000 0.500000
vt 0.375000 0.750000
vt 0.875000 0.500000
vt 0.625000 0.250000
vt 0.125000 0.500000
vt 0.375000 0.250000
vt 0.625000 1.000000
vt 0.625000 0.000000
vt 0.875000 0.750000
vt 0.375000 1.000000
vt 0.375000 0.000000
vt 0.125000 0.750000
vt 0.691569 0.500000
vt 0.625000 0.433431
vt 0.558431 0.500000
vt 0.558431 0.750000
vt 0.625000 0.816569
vt 0.691569 0.750000
s 1
usemtl Material
f 2/2/1 9/16/2 10/17/3 5/7/4 6/10/5
f 6/11/5 5/8/4 3/4/6 4/6/7
f 4/5/7 1/1/8 2/2/1 6/12/5
f 7/13/9 3/3/6 5/9/4 10/18/3
f 1/1/8 8/15/10 9/16/2 2/2/1
f 7/13/9 10/18/3 9/16/2 8/15/10
f 4/6/7 3/4/6 7/14/9 8/15/10 1/1/8
